<?xml version="1.0" encoding="UTF-8" standalone="no"?>
<!DOCTYPE svg PUBLIC "-//W3C//DTD SVG 1.1//EN" "http://www.w3.org/Graphics/SVG/1.1/DTD/svg11.dtd">
<svg width="100%" height="100%" viewBox="0 0 1080 1080" version="1.1" xmlns="http://www.w3.org/2000/svg" xmlns:xlink="http://www.w3.org/1999/xlink" xml:space="preserve" xmlns:serif="http://www.serif.com/" style="fill-rule:evenodd;clip-rule:evenodd;stroke-linejoin:round;stroke-miterlimit:2;">
    <g id="Background">
    </g>
    <g id="Assets" transform="matrix(0.94943,-0.622475,0.622475,0.94943,-436.918,338.316)">
        <g transform="matrix(0.999926,-0.012175,0.012175,0.999926,-2.10275,-1.8057)">
            <path d="M156.391,705.475L156.422,832.203C156.422,832.203 242.218,829.294 306.786,744.989C371.355,660.684 562.843,412.434 562.843,412.434L432.826,287.1L156.391,705.475Z" style="fill:rgb(163,170,175);"/>
        </g>
        <g transform="matrix(0.99299,0.118196,-0.118196,0.99299,111.742,-89.9597)">
            <path d="M1084.68,405.886L807.498,960.299L787.321,646.284C787.321,646.284 848.262,605.563 898.526,596.984C898.526,596.984 856.148,540.826 865.106,528.5C900.071,480.386 963.675,395.311 1084.68,405.886Z" style="fill:rgb(163,170,175);"/>
        </g>
        <g transform="matrix(0.999926,-0.012175,0.012175,0.999926,-2.10275,-1.8057)">
            <path d="M156.391,705.475L156.422,832.203C156.422,832.203 183.52,801.909 216.823,744.23C241.733,701.087 228.145,596.878 228.145,596.878L156.391,705.475Z" style="fill:rgb(105,122,132);"/>
        </g>
        <g transform="matrix(1.02406,0,0,1.01029,-9.27142,2.70565)">
            <path d="M812.773,299.467C812.773,189.771 724.911,100.712 616.69,100.712C508.469,100.712 420.607,189.771 420.607,299.467L420.607,924.135C420.607,1033.83 508.469,1122.89 616.69,1122.89C724.911,1122.89 812.773,1033.83 812.773,924.135L812.773,299.467Z" style="fill:rgb(221,52,46);"/>
        </g>
        <g transform="matrix(1,0,0,1,3.18649,-0.326973)">
            <circle cx="616.892" cy="268.103" r="92.927" style="fill:white;"/>
        </g>
        <g transform="matrix(1,0,0,1,3.18649,705.561)">
            <circle cx="616.892" cy="268.103" r="92.927" style="fill:white;"/>
        </g>
        <g transform="matrix(1,0,0,1,-0.203703,0.462495)">
            <rect x="563.047" y="494.706" width="114.471" height="249.82" style="fill:white;"/>
        </g>
        <g transform="matrix(6.12323e-17,1,-1,6.12323e-17,1239.69,-0.203703)">
            <rect x="563.047" y="494.706" width="114.471" height="249.82" style="fill:white;"/>
        </g>
    </g>
</svg>
